<svg xmlns="http://www.w3.org/2000/svg" xmlns:xlink="http://www.w3.org/1999/xlink" width="300" zoomAndPan="magnify" viewBox="0 0 224.87999 41.25" height="55" preserveAspectRatio="xMidYMid meet" version="1.0"><defs><g/><clipPath id="id1"><path d="M 210 15 L 222.8125 15 L 222.8125 23 L 210 23 Z M 210 15 " clip-rule="nonzero"/></clipPath></defs><g fill="#1266dd" fill-opacity="1"><g transform="translate(1.948925, 23.239698)"><g><path d="M 1.171875 -15.703125 L 9.21875 -15.703125 C 10.570312 -15.703125 11.59375 -15.507812 12.28125 -15.125 C 12.976562 -14.738281 13.445312 -14.164062 13.6875 -13.40625 C 13.925781 -12.644531 14.046875 -11.585938 14.046875 -10.234375 C 14.046875 -8.960938 13.929688 -7.945312 13.703125 -7.1875 C 13.484375 -6.425781 13.023438 -5.832031 12.328125 -5.40625 C 11.640625 -4.976562 10.601562 -4.765625 9.21875 -4.765625 L 6.5 -4.765625 L 6.5 0 L 1.171875 0 Z M 7.21875 -8.484375 C 7.6875 -8.484375 8.015625 -8.519531 8.203125 -8.59375 C 8.390625 -8.664062 8.515625 -8.8125 8.578125 -9.03125 C 8.640625 -9.25 8.671875 -9.648438 8.671875 -10.234375 C 8.671875 -10.804688 8.640625 -11.207031 8.578125 -11.4375 C 8.515625 -11.675781 8.390625 -11.828125 8.203125 -11.890625 C 8.023438 -11.953125 7.695312 -11.984375 7.21875 -11.984375 L 6.5 -11.984375 L 6.5 -8.484375 Z M 7.21875 -8.484375 "/></g></g></g><g fill="#1266dd" fill-opacity="1"><g transform="translate(17.375987, 23.239698)"><g><path d="M 9.40625 0 L 9.40625 -5.734375 L 6.5 -5.734375 L 6.5 0 L 1.171875 0 L 1.171875 -15.703125 L 6.5 -15.703125 L 6.5 -10 L 9.40625 -10 L 9.40625 -15.703125 L 14.75 -15.703125 L 14.75 0 Z M 9.40625 0 "/></g></g></g><g fill="#1266dd" fill-opacity="1"><g transform="translate(34.195129, 23.239698)"><g><path d="M 7.921875 0.1875 C 5.640625 0.1875 4.019531 -0.0390625 3.0625 -0.5 C 2.113281 -0.96875 1.523438 -1.707031 1.296875 -2.71875 C 1.066406 -3.738281 0.953125 -5.453125 0.953125 -7.859375 C 0.953125 -10.253906 1.066406 -11.957031 1.296875 -12.96875 C 1.523438 -13.988281 2.113281 -14.726562 3.0625 -15.1875 C 4.019531 -15.65625 5.640625 -15.890625 7.921875 -15.890625 C 10.203125 -15.890625 11.820312 -15.65625 12.78125 -15.1875 C 13.738281 -14.726562 14.332031 -13.988281 14.5625 -12.96875 C 14.789062 -11.957031 14.90625 -10.253906 14.90625 -7.859375 C 14.90625 -5.453125 14.789062 -3.738281 14.5625 -2.71875 C 14.332031 -1.707031 13.738281 -0.96875 12.78125 -0.5 C 11.820312 -0.0390625 10.203125 0.1875 7.921875 0.1875 Z M 7.921875 -3.625 C 8.492188 -3.625 8.878906 -3.691406 9.078125 -3.828125 C 9.273438 -3.972656 9.398438 -4.296875 9.453125 -4.796875 C 9.515625 -5.304688 9.546875 -6.328125 9.546875 -7.859375 C 9.546875 -9.378906 9.515625 -10.394531 9.453125 -10.90625 C 9.398438 -11.414062 9.273438 -11.738281 9.078125 -11.875 C 8.878906 -12.007812 8.492188 -12.078125 7.921875 -12.078125 C 7.335938 -12.078125 6.945312 -12.007812 6.75 -11.875 C 6.550781 -11.738281 6.429688 -11.414062 6.390625 -10.90625 C 6.347656 -10.40625 6.328125 -9.390625 6.328125 -7.859375 C 6.328125 -6.316406 6.347656 -5.296875 6.390625 -4.796875 C 6.429688 -4.296875 6.550781 -3.972656 6.75 -3.828125 C 6.945312 -3.691406 7.335938 -3.625 7.921875 -3.625 Z M 7.921875 -3.625 "/></g></g></g><g fill="#1266dd" fill-opacity="1"><g transform="translate(50.968625, 23.239698)"><g><path d="M 10.015625 0 L 6.390625 -7.328125 L 6.25 -7.328125 L 6.25 0 L 1.171875 0 L 1.171875 -15.703125 L 6.625 -15.703125 L 9.671875 -9.640625 L 9.84375 -9.640625 L 9.84375 -15.703125 L 14.921875 -15.703125 L 14.921875 0 Z M 10.015625 0 "/></g></g></g><g fill="#1266dd" fill-opacity="1"><g transform="translate(67.970338, 23.239698)"><g><path d="M 7.859375 -6 L 7.859375 -9.453125 L 14.015625 -9.453125 L 14.015625 -0.296875 C 13.148438 -0.160156 12.164062 -0.046875 11.0625 0.046875 C 9.96875 0.140625 9 0.1875 8.15625 0.1875 C 6.144531 0.1875 4.632812 -0.0390625 3.625 -0.5 C 2.625 -0.96875 1.925781 -1.757812 1.53125 -2.875 C 1.144531 -4 0.953125 -5.660156 0.953125 -7.859375 C 0.953125 -10.046875 1.144531 -11.695312 1.53125 -12.8125 C 1.925781 -13.9375 2.625 -14.726562 3.625 -15.1875 C 4.632812 -15.65625 6.144531 -15.890625 8.15625 -15.890625 C 8.988281 -15.890625 9.941406 -15.835938 11.015625 -15.734375 C 12.097656 -15.640625 13.078125 -15.507812 13.953125 -15.34375 L 13.953125 -11.78125 C 13.234375 -11.851562 12.472656 -11.921875 11.671875 -11.984375 C 10.878906 -12.046875 10.273438 -12.078125 9.859375 -12.078125 C 8.554688 -12.078125 7.675781 -12.007812 7.21875 -11.875 C 6.769531 -11.738281 6.484375 -11.410156 6.359375 -10.890625 C 6.242188 -10.367188 6.1875 -9.359375 6.1875 -7.859375 C 6.1875 -6.546875 6.226562 -5.601562 6.3125 -5.03125 C 6.40625 -4.457031 6.597656 -4.0625 6.890625 -3.84375 C 7.191406 -3.632812 7.6875 -3.53125 8.375 -3.53125 L 9.359375 -3.5625 L 9.359375 -6 Z M 7.859375 -6 "/></g></g></g><g fill="#1266dd" fill-opacity="1"><g transform="translate(83.990743, 23.239698)"><g><path d="M 4.125 0 L 4.125 -11.6875 L 0.296875 -11.6875 L 0.296875 -15.703125 L 13.328125 -15.703125 L 13.328125 -11.6875 L 9.46875 -11.6875 L 9.46875 0 Z M 4.125 0 "/></g></g></g><g fill="#1266dd" fill-opacity="1"><g transform="translate(98.527776, 23.239698)"><g><path d="M 9.15625 0 L 7.578125 -5.234375 L 6.5 -5.234375 L 6.5 0 L 1.171875 0 L 1.171875 -15.703125 L 9.421875 -15.703125 C 10.796875 -15.703125 11.832031 -15.515625 12.53125 -15.140625 C 13.226562 -14.773438 13.695312 -14.222656 13.9375 -13.484375 C 14.175781 -12.753906 14.296875 -11.742188 14.296875 -10.453125 C 14.296875 -9.234375 14.171875 -8.257812 13.921875 -7.53125 C 13.679688 -6.8125 13.203125 -6.253906 12.484375 -5.859375 L 14.640625 0 Z M 7.46875 -8.765625 C 7.9375 -8.765625 8.265625 -8.796875 8.453125 -8.859375 C 8.648438 -8.921875 8.78125 -9.050781 8.84375 -9.25 C 8.914062 -9.457031 8.953125 -9.828125 8.953125 -10.359375 C 8.953125 -10.910156 8.925781 -11.285156 8.875 -11.484375 C 8.832031 -11.679688 8.710938 -11.8125 8.515625 -11.875 C 8.316406 -11.945312 7.957031 -11.984375 7.4375 -11.984375 L 6.5 -11.984375 L 6.5 -8.765625 Z M 7.46875 -8.765625 "/></g></g></g><g fill="#1266dd" fill-opacity="1"><g transform="translate(114.616637, 23.239698)"><g><path d="M 7.921875 0.1875 C 5.640625 0.1875 4.019531 -0.0390625 3.0625 -0.5 C 2.113281 -0.96875 1.523438 -1.707031 1.296875 -2.71875 C 1.066406 -3.738281 0.953125 -5.453125 0.953125 -7.859375 C 0.953125 -10.253906 1.066406 -11.957031 1.296875 -12.96875 C 1.523438 -13.988281 2.113281 -14.726562 3.0625 -15.1875 C 4.019531 -15.65625 5.640625 -15.890625 7.921875 -15.890625 C 10.203125 -15.890625 11.820312 -15.65625 12.78125 -15.1875 C 13.738281 -14.726562 14.332031 -13.988281 14.5625 -12.96875 C 14.789062 -11.957031 14.90625 -10.253906 14.90625 -7.859375 C 14.90625 -5.453125 14.789062 -3.738281 14.5625 -2.71875 C 14.332031 -1.707031 13.738281 -0.96875 12.78125 -0.5 C 11.820312 -0.0390625 10.203125 0.1875 7.921875 0.1875 Z M 7.921875 -3.625 C 8.492188 -3.625 8.878906 -3.691406 9.078125 -3.828125 C 9.273438 -3.972656 9.398438 -4.296875 9.453125 -4.796875 C 9.515625 -5.304688 9.546875 -6.328125 9.546875 -7.859375 C 9.546875 -9.378906 9.515625 -10.394531 9.453125 -10.90625 C 9.398438 -11.414062 9.273438 -11.738281 9.078125 -11.875 C 8.878906 -12.007812 8.492188 -12.078125 7.921875 -12.078125 C 7.335938 -12.078125 6.945312 -12.007812 6.75 -11.875 C 6.550781 -11.738281 6.429688 -11.414062 6.390625 -10.90625 C 6.347656 -10.40625 6.328125 -9.390625 6.328125 -7.859375 C 6.328125 -6.316406 6.347656 -5.296875 6.390625 -4.796875 C 6.429688 -4.296875 6.550781 -3.972656 6.75 -3.828125 C 6.945312 -3.691406 7.335938 -3.625 7.921875 -3.625 Z M 7.921875 -3.625 "/></g></g></g><g fill="#000000" fill-opacity="1"><g transform="translate(1.948925, 37.409942)"><g><path d="M 0.6875 -6.21875 L 1.71875 -6.21875 L 1.71875 0 L 0.6875 0 Z M 1.8125 -3.28125 L 4.109375 -6.21875 L 5.328125 -6.21875 L 3 -3.296875 L 5.328125 0 L 4.109375 0 Z M 1.8125 -3.28125 "/></g></g></g><g fill="#000000" fill-opacity="1"><g transform="translate(8.205763, 37.409942)"><g><path d="M 2.640625 0.09375 C 2.128906 0.09375 1.695312 -0.0078125 1.34375 -0.21875 C 0.988281 -0.425781 0.71875 -0.707031 0.53125 -1.0625 C 0.34375 -1.414062 0.25 -1.804688 0.25 -2.234375 C 0.25 -2.648438 0.332031 -3.023438 0.5 -3.359375 C 0.675781 -3.703125 0.925781 -3.972656 1.25 -4.171875 C 1.582031 -4.378906 1.96875 -4.484375 2.40625 -4.484375 C 2.800781 -4.484375 3.140625 -4.398438 3.421875 -4.234375 C 3.710938 -4.078125 3.929688 -3.851562 4.078125 -3.5625 C 4.234375 -3.28125 4.3125 -2.957031 4.3125 -2.59375 C 4.3125 -2.40625 4.289062 -2.222656 4.25 -2.046875 L 1.28125 -2.046875 C 1.332031 -1.585938 1.488281 -1.253906 1.75 -1.046875 C 2.019531 -0.847656 2.351562 -0.75 2.75 -0.75 C 3.226562 -0.75 3.660156 -0.859375 4.046875 -1.078125 L 4.125 -0.25 C 3.664062 -0.0195312 3.171875 0.09375 2.640625 0.09375 Z M 3.296875 -2.71875 C 3.296875 -2.976562 3.222656 -3.195312 3.078125 -3.375 C 2.929688 -3.550781 2.707031 -3.640625 2.40625 -3.640625 C 1.832031 -3.640625 1.472656 -3.332031 1.328125 -2.71875 Z M 1.328125 -5.59375 L 2.484375 -6.578125 L 3.640625 -5.59375 L 3.640625 -4.953125 L 2.484375 -5.6875 L 1.328125 -4.953125 Z M 1.328125 -5.59375 "/></g></g></g><g fill="#000000" fill-opacity="1"><g transform="translate(13.654978, 37.409942)"><g><path d="M 2.71875 -4.484375 C 3.289062 -4.484375 3.71875 -4.300781 4 -3.9375 C 4.289062 -3.582031 4.4375 -3.085938 4.4375 -2.453125 L 4.4375 0 L 3.453125 0 L 3.453125 -2.390625 C 3.453125 -2.828125 3.375 -3.144531 3.21875 -3.34375 C 3.070312 -3.539062 2.820312 -3.640625 2.46875 -3.640625 C 2.0625 -3.640625 1.742188 -3.5 1.515625 -3.21875 L 1.515625 0 L 0.53125 0 L 0.53125 -4.40625 L 1.40625 -4.40625 L 1.4375 -4.03125 C 1.8125 -4.332031 2.238281 -4.484375 2.71875 -4.484375 Z M 2.71875 -4.484375 "/></g></g></g><g fill="#000000" fill-opacity="1"><g transform="translate(19.468066, 37.409942)"><g><path d="M 2.703125 -4.484375 C 3.265625 -4.484375 3.6875 -4.300781 3.96875 -3.9375 C 4.25 -3.570312 4.390625 -3.078125 4.390625 -2.453125 L 4.390625 0 L 3.390625 0 L 3.390625 -2.359375 C 3.390625 -2.804688 3.316406 -3.128906 3.171875 -3.328125 C 3.023438 -3.535156 2.785156 -3.640625 2.453125 -3.640625 C 2.066406 -3.640625 1.753906 -3.488281 1.515625 -3.1875 L 1.515625 0 L 0.515625 0 L 0.515625 -6.65625 L 1.515625 -6.65625 L 1.515625 -4.0625 C 1.691406 -4.195312 1.875 -4.300781 2.0625 -4.375 C 2.25 -4.445312 2.460938 -4.484375 2.703125 -4.484375 Z M 2.703125 -4.484375 "/></g></g></g><g fill="#000000" fill-opacity="1"><g transform="translate(25.219032, 37.409942)"><g/></g></g><g fill="#000000" fill-opacity="1"><g transform="translate(28.103381, 37.409942)"><g><path d="M 1.984375 0.09375 C 1.597656 0.09375 1.304688 -0.015625 1.109375 -0.234375 C 0.910156 -0.453125 0.8125 -0.71875 0.8125 -1.03125 L 0.8125 -3.609375 L 0.15625 -3.609375 L 0.234375 -4.40625 L 0.8125 -4.40625 L 0.8125 -5.40625 L 1.8125 -5.515625 L 1.8125 -4.40625 L 2.84375 -4.40625 L 2.84375 -3.609375 L 1.8125 -3.609375 L 1.8125 -1.484375 C 1.8125 -1.222656 1.828125 -1.046875 1.859375 -0.953125 C 1.890625 -0.859375 1.953125 -0.796875 2.046875 -0.765625 C 2.140625 -0.734375 2.316406 -0.71875 2.578125 -0.71875 L 2.84375 -0.71875 L 2.75 0.09375 Z M 1.984375 0.09375 "/></g></g></g><g fill="#000000" fill-opacity="1"><g transform="translate(32.017226, 37.409942)"><g><path d="M 2.703125 -4.484375 C 3.265625 -4.484375 3.6875 -4.300781 3.96875 -3.9375 C 4.25 -3.570312 4.390625 -3.078125 4.390625 -2.453125 L 4.390625 0 L 3.390625 0 L 3.390625 -2.359375 C 3.390625 -2.804688 3.316406 -3.128906 3.171875 -3.328125 C 3.023438 -3.535156 2.785156 -3.640625 2.453125 -3.640625 C 2.066406 -3.640625 1.753906 -3.488281 1.515625 -3.1875 L 1.515625 0 L 0.515625 0 L 0.515625 -6.65625 L 1.515625 -6.65625 L 1.515625 -4.0625 C 1.691406 -4.195312 1.875 -4.300781 2.0625 -4.375 C 2.25 -4.445312 2.460938 -4.484375 2.703125 -4.484375 Z M 2.703125 -4.484375 "/></g></g></g><g fill="#000000" fill-opacity="1"><g transform="translate(37.768192, 37.409942)"><g><path d="M 2.5 0.09375 C 2.039062 0.09375 1.640625 -0.0078125 1.296875 -0.21875 C 0.960938 -0.425781 0.703125 -0.703125 0.515625 -1.046875 C 0.335938 -1.398438 0.25 -1.785156 0.25 -2.203125 C 0.25 -2.617188 0.335938 -3 0.515625 -3.34375 C 0.703125 -3.695312 0.960938 -3.972656 1.296875 -4.171875 C 1.640625 -4.378906 2.039062 -4.484375 2.5 -4.484375 C 2.957031 -4.484375 3.351562 -4.378906 3.6875 -4.171875 C 4.03125 -3.972656 4.289062 -3.695312 4.46875 -3.34375 C 4.644531 -3 4.734375 -2.617188 4.734375 -2.203125 C 4.734375 -1.785156 4.644531 -1.398438 4.46875 -1.046875 C 4.289062 -0.703125 4.03125 -0.425781 3.6875 -0.21875 C 3.351562 -0.0078125 2.957031 0.09375 2.5 0.09375 Z M 2.5 -0.75 C 2.882812 -0.75 3.179688 -0.878906 3.390625 -1.140625 C 3.609375 -1.398438 3.71875 -1.753906 3.71875 -2.203125 C 3.71875 -2.640625 3.609375 -2.988281 3.390625 -3.25 C 3.179688 -3.519531 2.882812 -3.65625 2.5 -3.65625 C 2.113281 -3.65625 1.8125 -3.519531 1.59375 -3.25 C 1.382812 -2.988281 1.28125 -2.640625 1.28125 -2.203125 C 1.28125 -1.753906 1.382812 -1.398438 1.59375 -1.140625 C 1.8125 -0.878906 2.113281 -0.75 2.5 -0.75 Z M 1.34375 -5.59375 L 2.5 -6.578125 L 3.65625 -5.59375 L 3.65625 -4.953125 L 2.5 -5.6875 L 1.34375 -4.953125 Z M 1.34375 -5.59375 "/></g></g></g><g fill="#000000" fill-opacity="1"><g transform="translate(43.652276, 37.409942)"><g><path d="M 2.71875 -4.484375 C 3.289062 -4.484375 3.71875 -4.300781 4 -3.9375 C 4.289062 -3.582031 4.4375 -3.085938 4.4375 -2.453125 L 4.4375 0 L 3.453125 0 L 3.453125 -2.390625 C 3.453125 -2.828125 3.375 -3.144531 3.21875 -3.34375 C 3.070312 -3.539062 2.820312 -3.640625 2.46875 -3.640625 C 2.0625 -3.640625 1.742188 -3.5 1.515625 -3.21875 L 1.515625 0 L 0.53125 0 L 0.53125 -4.40625 L 1.40625 -4.40625 L 1.4375 -4.03125 C 1.8125 -4.332031 2.238281 -4.484375 2.71875 -4.484375 Z M 2.71875 -4.484375 "/></g></g></g><g fill="#000000" fill-opacity="1"><g transform="translate(49.465365, 37.409942)"><g><path d="M 2.28125 2.234375 C 1.65625 2.234375 1.15625 2.117188 0.78125 1.890625 C 0.40625 1.660156 0.21875 1.347656 0.21875 0.953125 C 0.21875 0.515625 0.460938 0.164062 0.953125 -0.09375 C 0.679688 -0.238281 0.546875 -0.4375 0.546875 -0.6875 C 0.546875 -0.96875 0.703125 -1.175781 1.015625 -1.3125 C 0.785156 -1.46875 0.609375 -1.671875 0.484375 -1.921875 C 0.367188 -2.171875 0.3125 -2.445312 0.3125 -2.75 C 0.3125 -3.070312 0.378906 -3.363281 0.515625 -3.625 C 0.660156 -3.894531 0.867188 -4.101562 1.140625 -4.25 C 1.410156 -4.40625 1.734375 -4.484375 2.109375 -4.484375 C 2.503906 -4.484375 2.847656 -4.382812 3.140625 -4.1875 C 3.253906 -4.25 3.394531 -4.300781 3.5625 -4.34375 C 3.738281 -4.382812 3.929688 -4.40625 4.140625 -4.40625 L 4.34375 -4.40625 L 4.265625 -3.78125 L 3.9375 -3.78125 C 3.820312 -3.78125 3.707031 -3.769531 3.59375 -3.75 C 3.800781 -3.46875 3.90625 -3.132812 3.90625 -2.75 C 3.90625 -2.425781 3.832031 -2.128906 3.6875 -1.859375 C 3.550781 -1.597656 3.34375 -1.390625 3.0625 -1.234375 C 2.789062 -1.078125 2.472656 -1 2.109375 -1 C 1.941406 -1 1.769531 -1.019531 1.59375 -1.0625 C 1.5 -1.03125 1.453125 -0.972656 1.453125 -0.890625 C 1.453125 -0.816406 1.5 -0.753906 1.59375 -0.703125 C 1.6875 -0.660156 1.832031 -0.628906 2.03125 -0.609375 L 2.921875 -0.46875 C 3.929688 -0.320312 4.4375 0.0976562 4.4375 0.796875 C 4.4375 1.242188 4.242188 1.59375 3.859375 1.84375 C 3.484375 2.101562 2.957031 2.234375 2.28125 2.234375 Z M 2.109375 -1.75 C 2.390625 -1.75 2.601562 -1.835938 2.75 -2.015625 C 2.90625 -2.203125 2.984375 -2.445312 2.984375 -2.75 C 2.984375 -3.0625 2.90625 -3.304688 2.75 -3.484375 C 2.601562 -3.660156 2.390625 -3.75 2.109375 -3.75 C 1.816406 -3.75 1.59375 -3.65625 1.4375 -3.46875 C 1.289062 -3.289062 1.21875 -3.050781 1.21875 -2.75 C 1.21875 -2.445312 1.289062 -2.203125 1.4375 -2.015625 C 1.59375 -1.835938 1.816406 -1.75 2.109375 -1.75 Z M 2.328125 1.4375 C 3.117188 1.4375 3.515625 1.242188 3.515625 0.859375 C 3.515625 0.703125 3.445312 0.578125 3.3125 0.484375 C 3.1875 0.398438 2.976562 0.335938 2.6875 0.296875 L 1.625 0.125 C 1.457031 0.1875 1.320312 0.269531 1.21875 0.375 C 1.125 0.488281 1.078125 0.617188 1.078125 0.765625 C 1.078125 0.992188 1.1875 1.160156 1.40625 1.265625 C 1.625 1.378906 1.929688 1.4375 2.328125 1.4375 Z M 2.328125 1.4375 "/></g></g></g><g fill="#000000" fill-opacity="1"><g transform="translate(54.790331, 37.409942)"><g/></g></g><g fill="#000000" fill-opacity="1"><g transform="translate(57.674676, 37.409942)"><g><path d="M 1.984375 0.09375 C 1.597656 0.09375 1.304688 -0.015625 1.109375 -0.234375 C 0.910156 -0.453125 0.8125 -0.71875 0.8125 -1.03125 L 0.8125 -3.609375 L 0.15625 -3.609375 L 0.234375 -4.40625 L 0.8125 -4.40625 L 0.8125 -5.40625 L 1.8125 -5.515625 L 1.8125 -4.40625 L 2.84375 -4.40625 L 2.84375 -3.609375 L 1.8125 -3.609375 L 1.8125 -1.484375 C 1.8125 -1.222656 1.828125 -1.046875 1.859375 -0.953125 C 1.890625 -0.859375 1.953125 -0.796875 2.046875 -0.765625 C 2.140625 -0.734375 2.316406 -0.71875 2.578125 -0.71875 L 2.84375 -0.71875 L 2.75 0.09375 Z M 1.984375 0.09375 "/></g></g></g><g fill="#000000" fill-opacity="1"><g transform="translate(61.588519, 37.409942)"><g><path d="M 0.53125 -6.21875 L 1.515625 -6.21875 L 1.515625 -5.1875 L 0.53125 -5.1875 Z M 0.53125 -4.40625 L 1.515625 -4.40625 L 1.515625 0 L 0.53125 0 Z M 0.53125 -4.40625 "/></g></g></g><g fill="#000000" fill-opacity="1"><g transform="translate(64.517249, 37.409942)"><g><path d="M 2.71875 -4.484375 C 3.289062 -4.484375 3.71875 -4.300781 4 -3.9375 C 4.289062 -3.582031 4.4375 -3.085938 4.4375 -2.453125 L 4.4375 0 L 3.453125 0 L 3.453125 -2.390625 C 3.453125 -2.828125 3.375 -3.144531 3.21875 -3.34375 C 3.070312 -3.539062 2.820312 -3.640625 2.46875 -3.640625 C 2.0625 -3.640625 1.742188 -3.5 1.515625 -3.21875 L 1.515625 0 L 0.53125 0 L 0.53125 -4.40625 L 1.40625 -4.40625 L 1.4375 -4.03125 C 1.8125 -4.332031 2.238281 -4.484375 2.71875 -4.484375 Z M 2.71875 -4.484375 "/></g></g></g><g fill="#000000" fill-opacity="1"><g transform="translate(70.330336, 37.409942)"><g/></g></g><g fill="#000000" fill-opacity="1"><g transform="translate(73.214682, 37.409942)"><g><path d="M 2.796875 -4.484375 C 3.210938 -4.484375 3.566406 -4.378906 3.859375 -4.171875 C 4.148438 -3.972656 4.375 -3.703125 4.53125 -3.359375 C 4.6875 -3.015625 4.765625 -2.628906 4.765625 -2.203125 C 4.765625 -1.773438 4.6875 -1.382812 4.53125 -1.03125 C 4.382812 -0.6875 4.160156 -0.410156 3.859375 -0.203125 C 3.566406 -0.00390625 3.210938 0.09375 2.796875 0.09375 C 2.515625 0.09375 2.269531 0.0546875 2.0625 -0.015625 C 1.863281 -0.0859375 1.679688 -0.203125 1.515625 -0.359375 L 1.515625 2.140625 L 0.53125 2.140625 L 0.53125 -4.40625 L 1.3125 -4.40625 L 1.421875 -3.9375 C 1.609375 -4.113281 1.8125 -4.25 2.03125 -4.34375 C 2.257812 -4.4375 2.515625 -4.484375 2.796875 -4.484375 Z M 2.640625 -0.75 C 2.984375 -0.75 3.253906 -0.878906 3.453125 -1.140625 C 3.648438 -1.398438 3.75 -1.753906 3.75 -2.203125 C 3.75 -2.640625 3.648438 -2.988281 3.453125 -3.25 C 3.253906 -3.507812 2.984375 -3.640625 2.640625 -3.640625 C 2.265625 -3.640625 1.972656 -3.515625 1.765625 -3.265625 C 1.566406 -3.015625 1.46875 -2.660156 1.46875 -2.203125 C 1.46875 -1.742188 1.566406 -1.382812 1.765625 -1.125 C 1.972656 -0.875 2.265625 -0.75 2.640625 -0.75 Z M 2.640625 -0.75 "/></g></g></g><g fill="#000000" fill-opacity="1"><g transform="translate(79.134265, 37.409942)"><g><path d="M 2.703125 -4.484375 C 3.265625 -4.484375 3.6875 -4.300781 3.96875 -3.9375 C 4.25 -3.570312 4.390625 -3.078125 4.390625 -2.453125 L 4.390625 0 L 3.390625 0 L 3.390625 -2.359375 C 3.390625 -2.804688 3.316406 -3.128906 3.171875 -3.328125 C 3.023438 -3.535156 2.785156 -3.640625 2.453125 -3.640625 C 2.066406 -3.640625 1.753906 -3.488281 1.515625 -3.1875 L 1.515625 0 L 0.515625 0 L 0.515625 -6.65625 L 1.515625 -6.65625 L 1.515625 -4.0625 C 1.691406 -4.195312 1.875 -4.300781 2.0625 -4.375 C 2.25 -4.445312 2.460938 -4.484375 2.703125 -4.484375 Z M 2.703125 -4.484375 "/></g></g></g><g fill="#000000" fill-opacity="1"><g transform="translate(84.885228, 37.409942)"><g><path d="M 2.5 0.09375 C 2.039062 0.09375 1.640625 -0.0078125 1.296875 -0.21875 C 0.960938 -0.425781 0.703125 -0.703125 0.515625 -1.046875 C 0.335938 -1.398438 0.25 -1.785156 0.25 -2.203125 C 0.25 -2.617188 0.335938 -3 0.515625 -3.34375 C 0.703125 -3.695312 0.960938 -3.972656 1.296875 -4.171875 C 1.640625 -4.378906 2.039062 -4.484375 2.5 -4.484375 C 2.957031 -4.484375 3.351562 -4.378906 3.6875 -4.171875 C 4.03125 -3.972656 4.289062 -3.695312 4.46875 -3.34375 C 4.644531 -3 4.734375 -2.617188 4.734375 -2.203125 C 4.734375 -1.785156 4.644531 -1.398438 4.46875 -1.046875 C 4.289062 -0.703125 4.03125 -0.425781 3.6875 -0.21875 C 3.351562 -0.0078125 2.957031 0.09375 2.5 0.09375 Z M 2.5 -0.75 C 2.882812 -0.75 3.179688 -0.878906 3.390625 -1.140625 C 3.609375 -1.398438 3.71875 -1.753906 3.71875 -2.203125 C 3.71875 -2.640625 3.609375 -2.988281 3.390625 -3.25 C 3.179688 -3.519531 2.882812 -3.65625 2.5 -3.65625 C 2.113281 -3.65625 1.8125 -3.519531 1.59375 -3.25 C 1.382812 -2.988281 1.28125 -2.640625 1.28125 -2.203125 C 1.28125 -1.753906 1.382812 -1.398438 1.59375 -1.140625 C 1.8125 -0.878906 2.113281 -0.75 2.5 -0.75 Z M 1.640625 -5.734375 L 1.640625 -6.703125 L 3.359375 -5.71875 L 3.359375 -5.078125 Z M 1.640625 -5.734375 "/></g></g></g><g fill="#000000" fill-opacity="1"><g transform="translate(90.769309, 37.409942)"><g><path d="M 2.71875 -4.484375 C 3.289062 -4.484375 3.71875 -4.300781 4 -3.9375 C 4.289062 -3.582031 4.4375 -3.085938 4.4375 -2.453125 L 4.4375 0 L 3.453125 0 L 3.453125 -2.390625 C 3.453125 -2.828125 3.375 -3.144531 3.21875 -3.34375 C 3.070312 -3.539062 2.820312 -3.640625 2.46875 -3.640625 C 2.0625 -3.640625 1.742188 -3.5 1.515625 -3.21875 L 1.515625 0 L 0.53125 0 L 0.53125 -4.40625 L 1.40625 -4.40625 L 1.4375 -4.03125 C 1.8125 -4.332031 2.238281 -4.484375 2.71875 -4.484375 Z M 2.71875 -4.484375 "/></g></g></g><g fill="#000000" fill-opacity="1"><g transform="translate(96.582396, 37.409942)"><g><path d="M 2.28125 2.234375 C 1.65625 2.234375 1.15625 2.117188 0.78125 1.890625 C 0.40625 1.660156 0.21875 1.347656 0.21875 0.953125 C 0.21875 0.515625 0.460938 0.164062 0.953125 -0.09375 C 0.679688 -0.238281 0.546875 -0.4375 0.546875 -0.6875 C 0.546875 -0.96875 0.703125 -1.175781 1.015625 -1.3125 C 0.785156 -1.46875 0.609375 -1.671875 0.484375 -1.921875 C 0.367188 -2.171875 0.3125 -2.445312 0.3125 -2.75 C 0.3125 -3.070312 0.378906 -3.363281 0.515625 -3.625 C 0.660156 -3.894531 0.867188 -4.101562 1.140625 -4.25 C 1.410156 -4.40625 1.734375 -4.484375 2.109375 -4.484375 C 2.503906 -4.484375 2.847656 -4.382812 3.140625 -4.1875 C 3.253906 -4.25 3.394531 -4.300781 3.5625 -4.34375 C 3.738281 -4.382812 3.929688 -4.40625 4.140625 -4.40625 L 4.34375 -4.40625 L 4.265625 -3.78125 L 3.9375 -3.78125 C 3.820312 -3.78125 3.707031 -3.769531 3.59375 -3.75 C 3.800781 -3.46875 3.90625 -3.132812 3.90625 -2.75 C 3.90625 -2.425781 3.832031 -2.128906 3.6875 -1.859375 C 3.550781 -1.597656 3.34375 -1.390625 3.0625 -1.234375 C 2.789062 -1.078125 2.472656 -1 2.109375 -1 C 1.941406 -1 1.769531 -1.019531 1.59375 -1.0625 C 1.5 -1.03125 1.453125 -0.972656 1.453125 -0.890625 C 1.453125 -0.816406 1.5 -0.753906 1.59375 -0.703125 C 1.6875 -0.660156 1.832031 -0.628906 2.03125 -0.609375 L 2.921875 -0.46875 C 3.929688 -0.320312 4.4375 0.0976562 4.4375 0.796875 C 4.4375 1.242188 4.242188 1.59375 3.859375 1.84375 C 3.484375 2.101562 2.957031 2.234375 2.28125 2.234375 Z M 2.109375 -1.75 C 2.390625 -1.75 2.601562 -1.835938 2.75 -2.015625 C 2.90625 -2.203125 2.984375 -2.445312 2.984375 -2.75 C 2.984375 -3.0625 2.90625 -3.304688 2.75 -3.484375 C 2.601562 -3.660156 2.390625 -3.75 2.109375 -3.75 C 1.816406 -3.75 1.59375 -3.65625 1.4375 -3.46875 C 1.289062 -3.289062 1.21875 -3.050781 1.21875 -2.75 C 1.21875 -2.445312 1.289062 -2.203125 1.4375 -2.015625 C 1.59375 -1.835938 1.816406 -1.75 2.109375 -1.75 Z M 2.328125 1.4375 C 3.117188 1.4375 3.515625 1.242188 3.515625 0.859375 C 3.515625 0.703125 3.445312 0.578125 3.3125 0.484375 C 3.1875 0.398438 2.976562 0.335938 2.6875 0.296875 L 1.625 0.125 C 1.457031 0.1875 1.320312 0.269531 1.21875 0.375 C 1.125 0.488281 1.078125 0.617188 1.078125 0.765625 C 1.078125 0.992188 1.1875 1.160156 1.40625 1.265625 C 1.625 1.378906 1.929688 1.4375 2.328125 1.4375 Z M 2.328125 1.4375 "/></g></g></g><g fill="#000000" fill-opacity="1"><g transform="translate(101.907361, 37.409942)"><g/></g></g><g fill="#000000" fill-opacity="1"><g transform="translate(104.791707, 37.409942)"><g><path d="M 1.984375 0.09375 C 1.597656 0.09375 1.304688 -0.015625 1.109375 -0.234375 C 0.910156 -0.453125 0.8125 -0.71875 0.8125 -1.03125 L 0.8125 -3.609375 L 0.15625 -3.609375 L 0.234375 -4.40625 L 0.8125 -4.40625 L 0.8125 -5.40625 L 1.8125 -5.515625 L 1.8125 -4.40625 L 2.84375 -4.40625 L 2.84375 -3.609375 L 1.8125 -3.609375 L 1.8125 -1.484375 C 1.8125 -1.222656 1.828125 -1.046875 1.859375 -0.953125 C 1.890625 -0.859375 1.953125 -0.796875 2.046875 -0.765625 C 2.140625 -0.734375 2.316406 -0.71875 2.578125 -0.71875 L 2.84375 -0.71875 L 2.75 0.09375 Z M 1.984375 0.09375 "/></g></g></g><g fill="#000000" fill-opacity="1"><g transform="translate(108.70555, 37.409942)"><g><path d="M 0.53125 -4.40625 L 1.421875 -4.40625 L 1.46875 -3.84375 C 1.632812 -4.039062 1.816406 -4.195312 2.015625 -4.3125 C 2.222656 -4.425781 2.441406 -4.484375 2.671875 -4.484375 C 2.734375 -4.484375 2.796875 -4.476562 2.859375 -4.46875 L 2.78125 -3.46875 C 2.6875 -3.488281 2.578125 -3.5 2.453125 -3.5 C 2.253906 -3.5 2.066406 -3.453125 1.890625 -3.359375 C 1.722656 -3.273438 1.601562 -3.171875 1.53125 -3.046875 L 1.53125 0 L 0.53125 0 Z M 0.53125 -4.40625 "/></g></g></g><g fill="#000000" fill-opacity="1"><g transform="translate(112.477393, 37.409942)"><g><path d="M 2.5 0.09375 C 2.039062 0.09375 1.640625 -0.0078125 1.296875 -0.21875 C 0.960938 -0.425781 0.703125 -0.703125 0.515625 -1.046875 C 0.335938 -1.398438 0.25 -1.785156 0.25 -2.203125 C 0.25 -2.617188 0.335938 -3 0.515625 -3.34375 C 0.703125 -3.695312 0.960938 -3.972656 1.296875 -4.171875 C 1.640625 -4.378906 2.039062 -4.484375 2.5 -4.484375 C 2.957031 -4.484375 3.351562 -4.378906 3.6875 -4.171875 C 4.03125 -3.972656 4.289062 -3.695312 4.46875 -3.34375 C 4.644531 -3 4.734375 -2.617188 4.734375 -2.203125 C 4.734375 -1.785156 4.644531 -1.398438 4.46875 -1.046875 C 4.289062 -0.703125 4.03125 -0.425781 3.6875 -0.21875 C 3.351562 -0.0078125 2.957031 0.09375 2.5 0.09375 Z M 2.5 -0.75 C 2.882812 -0.75 3.179688 -0.878906 3.390625 -1.140625 C 3.609375 -1.398438 3.71875 -1.753906 3.71875 -2.203125 C 3.71875 -2.640625 3.609375 -2.988281 3.390625 -3.25 C 3.179688 -3.519531 2.882812 -3.65625 2.5 -3.65625 C 2.113281 -3.65625 1.8125 -3.519531 1.59375 -3.25 C 1.382812 -2.988281 1.28125 -2.640625 1.28125 -2.203125 C 1.28125 -1.753906 1.382812 -1.398438 1.59375 -1.140625 C 1.8125 -0.878906 2.113281 -0.75 2.5 -0.75 Z M 2.046875 0.71875 L 2.953125 0.71875 L 2.953125 1.546875 L 2.046875 1.546875 Z M 2.046875 0.71875 "/></g></g></g><g fill="#000000" fill-opacity="1"><g transform="translate(118.361474, 37.409942)"><g/></g></g><g fill="#000000" fill-opacity="1"><g transform="translate(121.24582, 37.409942)"><g><path d="M 1.78125 0.09375 C 1.238281 0.09375 0.738281 -0.0195312 0.28125 -0.25 L 0.375 -1.140625 C 0.832031 -0.835938 1.285156 -0.6875 1.734375 -0.6875 C 1.984375 -0.6875 2.171875 -0.726562 2.296875 -0.8125 C 2.421875 -0.894531 2.484375 -1.015625 2.484375 -1.171875 C 2.484375 -1.347656 2.414062 -1.476562 2.28125 -1.5625 C 2.15625 -1.65625 1.945312 -1.753906 1.65625 -1.859375 C 1.21875 -2.003906 0.890625 -2.171875 0.671875 -2.359375 C 0.453125 -2.554688 0.34375 -2.832031 0.34375 -3.1875 C 0.34375 -3.570312 0.484375 -3.882812 0.765625 -4.125 C 1.054688 -4.363281 1.460938 -4.484375 1.984375 -4.484375 C 2.460938 -4.484375 2.894531 -4.378906 3.28125 -4.171875 L 3.1875 -3.3125 C 2.988281 -3.445312 2.796875 -3.550781 2.609375 -3.625 C 2.421875 -3.707031 2.21875 -3.75 2 -3.75 C 1.78125 -3.75 1.609375 -3.707031 1.484375 -3.625 C 1.367188 -3.539062 1.3125 -3.414062 1.3125 -3.25 C 1.3125 -3.132812 1.34375 -3.035156 1.40625 -2.953125 C 1.476562 -2.878906 1.570312 -2.816406 1.6875 -2.765625 C 1.8125 -2.710938 2.003906 -2.640625 2.265625 -2.546875 C 2.660156 -2.398438 2.960938 -2.226562 3.171875 -2.03125 C 3.378906 -1.84375 3.484375 -1.570312 3.484375 -1.21875 C 3.484375 -0.820312 3.34375 -0.503906 3.0625 -0.265625 C 2.78125 -0.0234375 2.351562 0.09375 1.78125 0.09375 Z M 1.78125 0.09375 "/></g></g></g><g fill="#000000" fill-opacity="1"><g transform="translate(125.860789, 37.409942)"><g><path d="M 2.5 0.09375 C 2.039062 0.09375 1.640625 -0.0078125 1.296875 -0.21875 C 0.960938 -0.425781 0.703125 -0.703125 0.515625 -1.046875 C 0.335938 -1.398438 0.25 -1.785156 0.25 -2.203125 C 0.25 -2.617188 0.335938 -3 0.515625 -3.34375 C 0.703125 -3.695312 0.960938 -3.972656 1.296875 -4.171875 C 1.640625 -4.378906 2.039062 -4.484375 2.5 -4.484375 C 2.957031 -4.484375 3.351562 -4.378906 3.6875 -4.171875 C 4.03125 -3.972656 4.289062 -3.695312 4.46875 -3.34375 C 4.644531 -3 4.734375 -2.617188 4.734375 -2.203125 C 4.734375 -1.785156 4.644531 -1.398438 4.46875 -1.046875 C 4.289062 -0.703125 4.03125 -0.425781 3.6875 -0.21875 C 3.351562 -0.0078125 2.957031 0.09375 2.5 0.09375 Z M 2.5 -0.75 C 2.882812 -0.75 3.179688 -0.878906 3.390625 -1.140625 C 3.609375 -1.398438 3.71875 -1.753906 3.71875 -2.203125 C 3.71875 -2.640625 3.609375 -2.988281 3.390625 -3.25 C 3.179688 -3.519531 2.882812 -3.65625 2.5 -3.65625 C 2.113281 -3.65625 1.8125 -3.519531 1.59375 -3.25 C 1.382812 -2.988281 1.28125 -2.640625 1.28125 -2.203125 C 1.28125 -1.753906 1.382812 -1.398438 1.59375 -1.140625 C 1.8125 -0.878906 2.113281 -0.75 2.5 -0.75 Z M 3.765625 -7.25 L 4.71875 -7.25 L 3.828125 -6.15625 L 3.171875 -6.15625 Z M 1.34375 -5.453125 L 2.5 -6.25 L 3.65625 -5.453125 L 3.65625 -4.828125 L 2.5 -5.453125 L 1.34375 -4.828125 Z M 1.34375 -5.453125 "/></g></g></g><g fill="#000000" fill-opacity="1"><g transform="translate(131.74487, 37.409942)"><g/></g></g><g fill="#000000" fill-opacity="1"><g transform="translate(134.629216, 37.409942)"><g><path d="M 1.3125 -4.75 C 1.03125 -4.550781 0.753906 -4.414062 0.484375 -4.34375 L 0.359375 -5.25 C 0.578125 -5.300781 0.804688 -5.421875 1.046875 -5.609375 C 1.296875 -5.804688 1.472656 -6.007812 1.578125 -6.21875 L 2.328125 -6.21875 L 2.328125 0 L 1.3125 0 Z M 1.3125 -4.75 "/></g></g></g><g fill="#000000" fill-opacity="1"><g transform="translate(138.649555, 37.409942)"><g/></g></g><g fill="#000000" fill-opacity="1"><g transform="translate(141.533901, 37.409942)"><g><path d="M 5.453125 -6.21875 L 3.234375 0 L 2.234375 0 L 0.015625 -6.21875 L 1.0625 -6.21875 L 2.734375 -1.46875 L 4.40625 -6.21875 Z M 5.453125 -6.21875 "/></g></g></g><g fill="#000000" fill-opacity="1"><g transform="translate(147.888363, 37.409942)"><g><path d="M 0.53125 -6.21875 L 1.515625 -6.21875 L 1.515625 -5.1875 L 0.53125 -5.1875 Z M 0.53125 -4.40625 L 1.515625 -4.40625 L 1.515625 0 L 0.53125 0 Z M 0.53125 -4.40625 "/></g></g></g><g fill="#000000" fill-opacity="1"><g transform="translate(150.817093, 37.409942)"><g><path d="M 2.640625 0.09375 C 2.128906 0.09375 1.695312 -0.0078125 1.34375 -0.21875 C 0.988281 -0.425781 0.71875 -0.707031 0.53125 -1.0625 C 0.34375 -1.414062 0.25 -1.804688 0.25 -2.234375 C 0.25 -2.648438 0.332031 -3.023438 0.5 -3.359375 C 0.675781 -3.703125 0.925781 -3.972656 1.25 -4.171875 C 1.582031 -4.378906 1.96875 -4.484375 2.40625 -4.484375 C 2.800781 -4.484375 3.140625 -4.398438 3.421875 -4.234375 C 3.710938 -4.078125 3.929688 -3.851562 4.078125 -3.5625 C 4.234375 -3.28125 4.3125 -2.957031 4.3125 -2.59375 C 4.3125 -2.40625 4.289062 -2.222656 4.25 -2.046875 L 1.28125 -2.046875 C 1.332031 -1.585938 1.488281 -1.253906 1.75 -1.046875 C 2.019531 -0.847656 2.351562 -0.75 2.75 -0.75 C 3.226562 -0.75 3.660156 -0.859375 4.046875 -1.078125 L 4.125 -0.25 C 3.664062 -0.0195312 3.171875 0.09375 2.640625 0.09375 Z M 3.296875 -2.71875 C 3.296875 -2.976562 3.222656 -3.195312 3.078125 -3.375 C 2.929688 -3.550781 2.707031 -3.640625 2.40625 -3.640625 C 1.832031 -3.640625 1.472656 -3.332031 1.328125 -2.71875 Z M 1.328125 -5.59375 L 2.484375 -6.578125 L 3.640625 -5.59375 L 3.640625 -4.953125 L 2.484375 -5.6875 L 1.328125 -4.953125 Z M 1.828125 0.71875 L 2.734375 0.71875 L 2.734375 1.546875 L 1.828125 1.546875 Z M 1.828125 0.71875 "/></g></g></g><g fill="#000000" fill-opacity="1"><g transform="translate(156.266306, 37.409942)"><g><path d="M 1.984375 0.09375 C 1.597656 0.09375 1.304688 -0.015625 1.109375 -0.234375 C 0.910156 -0.453125 0.8125 -0.71875 0.8125 -1.03125 L 0.8125 -3.609375 L 0.15625 -3.609375 L 0.234375 -4.40625 L 0.8125 -4.40625 L 0.8125 -5.40625 L 1.8125 -5.515625 L 1.8125 -4.40625 L 2.84375 -4.40625 L 2.84375 -3.609375 L 1.8125 -3.609375 L 1.8125 -1.484375 C 1.8125 -1.222656 1.828125 -1.046875 1.859375 -0.953125 C 1.890625 -0.859375 1.953125 -0.796875 2.046875 -0.765625 C 2.140625 -0.734375 2.316406 -0.71875 2.578125 -0.71875 L 2.84375 -0.71875 L 2.75 0.09375 Z M 1.984375 0.09375 "/></g></g></g><g fill="#000000" fill-opacity="1"><g transform="translate(160.180149, 37.409942)"><g/></g></g><g fill="#000000" fill-opacity="1"><g transform="translate(163.064495, 37.409942)"><g><path d="M 0.6875 -6.21875 L 1.734375 -6.21875 L 4.53125 -1.96875 L 4.53125 -6.21875 L 5.578125 -6.21875 L 5.578125 0 L 4.71875 0 L 1.71875 -4.5 L 1.71875 0 L 0.6875 0 Z M 0.6875 -6.21875 "/></g></g></g><g fill="#000000" fill-opacity="1"><g transform="translate(170.217699, 37.409942)"><g><path d="M 1.5 0.09375 C 1.125 0.09375 0.8125 -0.0234375 0.5625 -0.265625 C 0.3125 -0.503906 0.1875 -0.820312 0.1875 -1.21875 C 0.1875 -1.601562 0.320312 -1.910156 0.59375 -2.140625 C 0.875 -2.367188 1.203125 -2.53125 1.578125 -2.625 C 1.960938 -2.726562 2.34375 -2.785156 2.71875 -2.796875 C 2.71875 -3.097656 2.648438 -3.3125 2.515625 -3.4375 C 2.390625 -3.5625 2.175781 -3.625 1.875 -3.625 C 1.6875 -3.625 1.5 -3.59375 1.3125 -3.53125 C 1.125 -3.476562 0.914062 -3.390625 0.6875 -3.265625 L 0.578125 -4.078125 C 1.078125 -4.347656 1.597656 -4.484375 2.140625 -4.484375 C 2.679688 -4.484375 3.082031 -4.335938 3.34375 -4.046875 C 3.601562 -3.753906 3.734375 -3.269531 3.734375 -2.59375 L 3.734375 -1.5 C 3.734375 -1.269531 3.742188 -1.101562 3.765625 -1 C 3.785156 -0.894531 3.820312 -0.820312 3.875 -0.78125 C 3.925781 -0.738281 4.019531 -0.71875 4.15625 -0.71875 L 4.28125 -0.71875 L 4.15625 0.09375 L 3.890625 0.09375 C 3.609375 0.09375 3.382812 0.046875 3.21875 -0.046875 C 3.0625 -0.140625 2.9375 -0.28125 2.84375 -0.46875 C 2.695312 -0.300781 2.503906 -0.164062 2.265625 -0.0625 C 2.023438 0.0390625 1.769531 0.09375 1.5 0.09375 Z M 1.859375 -0.6875 C 2.003906 -0.6875 2.15625 -0.722656 2.3125 -0.796875 C 2.476562 -0.867188 2.617188 -0.96875 2.734375 -1.09375 L 2.734375 -2.125 C 2.273438 -2.101562 1.90625 -2.019531 1.625 -1.875 C 1.351562 -1.738281 1.21875 -1.535156 1.21875 -1.265625 C 1.21875 -0.878906 1.429688 -0.6875 1.859375 -0.6875 Z M 1.859375 -0.6875 "/></g></g></g><g fill="#000000" fill-opacity="1"><g transform="translate(175.462789, 37.409942)"><g><path d="M 5.53125 -4.484375 C 6.113281 -4.484375 6.546875 -4.3125 6.828125 -3.96875 C 7.117188 -3.632812 7.265625 -3.144531 7.265625 -2.5 L 7.265625 0 L 6.265625 0 L 6.265625 -2.453125 C 6.265625 -2.867188 6.191406 -3.171875 6.046875 -3.359375 C 5.910156 -3.546875 5.6875 -3.640625 5.375 -3.640625 C 5.019531 -3.640625 4.765625 -3.535156 4.609375 -3.328125 C 4.460938 -3.117188 4.390625 -2.835938 4.390625 -2.484375 L 4.390625 0 L 3.40625 0 L 3.40625 -2.390625 C 3.40625 -2.835938 3.328125 -3.15625 3.171875 -3.34375 C 3.023438 -3.539062 2.796875 -3.640625 2.484375 -3.640625 C 2.066406 -3.640625 1.742188 -3.492188 1.515625 -3.203125 L 1.515625 0 L 0.53125 0 L 0.53125 -4.40625 L 1.34375 -4.40625 L 1.40625 -4.015625 C 1.800781 -4.328125 2.242188 -4.484375 2.734375 -4.484375 C 3.335938 -4.484375 3.78125 -4.25 4.0625 -3.78125 C 4.207031 -4.007812 4.40625 -4.179688 4.65625 -4.296875 C 4.914062 -4.421875 5.207031 -4.484375 5.53125 -4.484375 Z M 5.53125 -4.484375 "/></g></g></g><g fill="#e4012b" fill-opacity="1"><g transform="translate(132.702282, 23.307735)"><g><path d="M 3.859375 0 L 3.859375 -14.890625 L 0.15625 -13.4375 L 0.15625 -18.828125 L 6.203125 -21.796875 L 11.28125 -21.796875 L 11.28125 0 Z M 3.859375 0 "/></g></g></g><g fill="#e4012b" fill-opacity="1"><g transform="translate(146.833339, 23.307735)"><g><path d="M 8.625 -6.625 C 8.539062 -6.457031 8.484375 -6.269531 8.453125 -6.0625 C 8.429688 -5.863281 8.421875 -5.640625 8.421875 -5.390625 L 18.03125 -5.390625 L 18.03125 0 L 1.359375 0 L 1.359375 -3.296875 C 1.359375 -5.148438 1.414062 -6.546875 1.53125 -7.484375 C 1.65625 -8.429688 1.945312 -9.242188 2.40625 -9.921875 C 2.875 -10.597656 3.625 -11.144531 4.65625 -11.5625 L 7.484375 -12.703125 C 8.492188 -13.109375 9.03125 -13.320312 9.09375 -13.34375 C 9.601562 -13.550781 9.957031 -13.722656 10.15625 -13.859375 C 10.351562 -13.992188 10.476562 -14.160156 10.53125 -14.359375 C 10.582031 -14.566406 10.609375 -14.914062 10.609375 -15.40625 C 10.609375 -15.820312 10.539062 -16.125 10.40625 -16.3125 C 10.269531 -16.507812 10.039062 -16.632812 9.71875 -16.6875 C 9.40625 -16.738281 8.890625 -16.765625 8.171875 -16.765625 C 6.710938 -16.765625 4.59375 -16.601562 1.8125 -16.28125 L 1.8125 -21.296875 C 2.90625 -21.523438 4.207031 -21.707031 5.71875 -21.84375 C 7.226562 -21.976562 8.617188 -22.046875 9.890625 -22.046875 C 11.578125 -22.046875 13 -21.894531 14.15625 -21.59375 C 15.320312 -21.289062 16.257812 -20.675781 16.96875 -19.75 C 17.675781 -18.832031 18.03125 -17.5 18.03125 -15.75 C 18.03125 -13.78125 17.734375 -12.289062 17.140625 -11.28125 C 16.546875 -10.269531 15.722656 -9.570312 14.671875 -9.1875 L 12.015625 -8.171875 L 9.703125 -7.28125 C 9.378906 -7.15625 9.132812 -7.046875 8.96875 -6.953125 C 8.800781 -6.859375 8.6875 -6.75 8.625 -6.625 Z M 8.625 -6.625 "/></g></g></g><g fill="#e4012b" fill-opacity="1"><g transform="translate(167.55441, 23.307735)"><g><path d="M 8.8125 0.25 C 7.707031 0.25 6.460938 0.179688 5.078125 0.046875 C 3.703125 -0.0859375 2.484375 -0.257812 1.421875 -0.46875 L 1.421875 -5.421875 C 4.066406 -5.160156 6.285156 -5.03125 8.078125 -5.03125 C 8.878906 -5.03125 9.4375 -5.054688 9.75 -5.109375 C 10.070312 -5.171875 10.289062 -5.304688 10.40625 -5.515625 C 10.519531 -5.722656 10.578125 -6.09375 10.578125 -6.625 C 10.578125 -7.195312 10.523438 -7.609375 10.421875 -7.859375 C 10.316406 -8.109375 10.132812 -8.265625 9.875 -8.328125 C 9.625 -8.390625 9.195312 -8.421875 8.59375 -8.421875 L 5.203125 -8.421875 L 5.203125 -13.59375 L 8.59375 -13.59375 C 9.195312 -13.59375 9.617188 -13.628906 9.859375 -13.703125 C 10.109375 -13.773438 10.265625 -13.910156 10.328125 -14.109375 C 10.390625 -14.316406 10.421875 -14.679688 10.421875 -15.203125 C 10.421875 -15.734375 10.367188 -16.097656 10.265625 -16.296875 C 10.160156 -16.503906 9.941406 -16.632812 9.609375 -16.6875 C 9.285156 -16.738281 8.671875 -16.765625 7.765625 -16.765625 C 6.859375 -16.765625 5.816406 -16.722656 4.640625 -16.640625 C 3.472656 -16.554688 2.441406 -16.457031 1.546875 -16.34375 L 1.546875 -21.328125 C 2.585938 -21.535156 3.789062 -21.707031 5.15625 -21.84375 C 6.53125 -21.976562 7.757812 -22.046875 8.84375 -22.046875 C 11.101562 -22.046875 12.882812 -21.828125 14.1875 -21.390625 C 15.5 -20.960938 16.4375 -20.335938 17 -19.515625 C 17.5625 -18.691406 17.84375 -17.625 17.84375 -16.3125 C 17.84375 -14.769531 17.535156 -13.609375 16.921875 -12.828125 C 16.304688 -12.046875 15.34375 -11.5 14.03125 -11.1875 L 14.03125 -11.0625 C 14.96875 -10.820312 15.710938 -10.523438 16.265625 -10.171875 C 16.828125 -9.816406 17.253906 -9.296875 17.546875 -8.609375 C 17.847656 -7.921875 18 -6.992188 18 -5.828125 C 18 -4.472656 17.738281 -3.359375 17.21875 -2.484375 C 16.707031 -1.609375 15.78125 -0.929688 14.4375 -0.453125 C 13.09375 0.015625 11.21875 0.25 8.8125 0.25 Z M 8.8125 0.25 "/></g></g></g><g fill="#aaaaaa" fill-opacity="1"><g transform="translate(187.249721, 22.968712)"><g><path d="M 0.84375 -2.125 L 2.96875 -2.125 L 2.96875 0 L 0.84375 0 Z M 0.84375 -2.125 "/></g></g></g><g fill="#aaaaaa" fill-opacity="1"><g transform="translate(191.673035, 22.968712)"><g><path d="M 4.515625 0.125 C 3.710938 0.125 3.015625 -0.0351562 2.421875 -0.359375 C 1.835938 -0.679688 1.390625 -1.140625 1.078125 -1.734375 C 0.765625 -2.328125 0.609375 -3.023438 0.609375 -3.828125 C 0.609375 -4.628906 0.769531 -5.332031 1.09375 -5.9375 C 1.425781 -6.550781 1.894531 -7.023438 2.5 -7.359375 C 3.101562 -7.703125 3.800781 -7.875 4.59375 -7.875 C 5.132812 -7.875 5.660156 -7.785156 6.171875 -7.609375 C 6.691406 -7.441406 7.101562 -7.207031 7.40625 -6.90625 L 6.875 -5.5625 C 6.550781 -5.820312 6.207031 -6.019531 5.84375 -6.15625 C 5.476562 -6.300781 5.117188 -6.375 4.765625 -6.375 C 4.066406 -6.375 3.523438 -6.15625 3.140625 -5.71875 C 2.753906 -5.289062 2.5625 -4.671875 2.5625 -3.859375 C 2.5625 -3.046875 2.75 -2.425781 3.125 -2 C 3.507812 -1.582031 4.054688 -1.375 4.765625 -1.375 C 5.117188 -1.375 5.476562 -1.441406 5.84375 -1.578125 C 6.207031 -1.722656 6.550781 -1.925781 6.875 -2.1875 L 7.40625 -0.84375 C 7.082031 -0.539062 6.660156 -0.300781 6.140625 -0.125 C 5.617188 0.0390625 5.078125 0.125 4.515625 0.125 Z M 4.515625 0.125 "/></g></g></g><g fill="#aaaaaa" fill-opacity="1"><g transform="translate(199.92629, 22.968712)"><g><path d="M 4.515625 0.125 C 3.734375 0.125 3.046875 -0.0351562 2.453125 -0.359375 C 1.859375 -0.679688 1.398438 -1.144531 1.078125 -1.75 C 0.765625 -2.351562 0.609375 -3.0625 0.609375 -3.875 C 0.609375 -4.6875 0.765625 -5.394531 1.078125 -6 C 1.398438 -6.601562 1.859375 -7.066406 2.453125 -7.390625 C 3.046875 -7.710938 3.734375 -7.875 4.515625 -7.875 C 5.285156 -7.875 5.960938 -7.710938 6.546875 -7.390625 C 7.140625 -7.066406 7.59375 -6.601562 7.90625 -6 C 8.226562 -5.394531 8.390625 -4.6875 8.390625 -3.875 C 8.390625 -3.0625 8.226562 -2.351562 7.90625 -1.75 C 7.59375 -1.144531 7.140625 -0.679688 6.546875 -0.359375 C 5.960938 -0.0351562 5.285156 0.125 4.515625 0.125 Z M 4.5 -1.375 C 5.144531 -1.375 5.632812 -1.582031 5.96875 -2 C 6.3125 -2.414062 6.484375 -3.039062 6.484375 -3.875 C 6.484375 -4.695312 6.3125 -5.320312 5.96875 -5.75 C 5.625 -6.1875 5.140625 -6.40625 4.515625 -6.40625 C 3.878906 -6.40625 3.390625 -6.1875 3.046875 -5.75 C 2.703125 -5.320312 2.53125 -4.695312 2.53125 -3.875 C 2.53125 -3.039062 2.695312 -2.414062 3.03125 -2 C 3.375 -1.582031 3.863281 -1.375 4.5 -1.375 Z M 4.5 -1.375 "/></g></g></g><g clip-path="url(#id1)"><g fill="#aaaaaa" fill-opacity="1"><g transform="translate(209.532189, 22.968712)"><g><path d="M 10.09375 -7.875 C 10.96875 -7.875 11.613281 -7.613281 12.03125 -7.09375 C 12.457031 -6.570312 12.671875 -5.78125 12.671875 -4.71875 L 12.671875 0 L 10.78125 0 L 10.78125 -4.65625 C 10.78125 -5.257812 10.679688 -5.695312 10.484375 -5.96875 C 10.285156 -6.238281 9.957031 -6.375 9.5 -6.375 C 8.976562 -6.375 8.566406 -6.1875 8.265625 -5.8125 C 7.960938 -5.445312 7.8125 -4.9375 7.8125 -4.28125 L 7.8125 0 L 5.90625 0 L 5.90625 -4.65625 C 5.90625 -5.25 5.800781 -5.679688 5.59375 -5.953125 C 5.394531 -6.234375 5.070312 -6.375 4.625 -6.375 C 4.09375 -6.375 3.675781 -6.1875 3.375 -5.8125 C 3.070312 -5.445312 2.921875 -4.9375 2.921875 -4.28125 L 2.921875 0 L 1.03125 0 L 1.03125 -5.5 C 1.03125 -6.3125 0.988281 -7.035156 0.90625 -7.671875 L 2.6875 -7.671875 L 2.828125 -6.46875 C 3.046875 -6.914062 3.363281 -7.257812 3.78125 -7.5 C 4.207031 -7.75 4.695312 -7.875 5.25 -7.875 C 6.425781 -7.875 7.191406 -7.390625 7.546875 -6.421875 C 7.785156 -6.867188 8.128906 -7.222656 8.578125 -7.484375 C 9.035156 -7.742188 9.539062 -7.875 10.09375 -7.875 Z M 10.09375 -7.875 "/></g></g></g></g></svg>